<?xml version="1.0" standalone="no"?>
<!DOCTYPE svg PUBLIC "-//W3C//DTD SVG 20010904//EN"
 "http://www.w3.org/TR/2001/REC-SVG-20010904/DTD/svg10.dtd">
<svg version="1.0" xmlns="http://www.w3.org/2000/svg"
 width="625.000000pt" height="625.000000pt" viewBox="0 0 625.000000 625.000000"
 preserveAspectRatio="xMidYMid meet">

<g transform="translate(0.000000,625.000000) scale(0.100000,-0.100000)"
fill="#000000" stroke="none">
<path d="M2985 5923 c-116 -24 -204 -68 -408 -202 -451 -297 -520 -325 -917
-371 -340 -39 -434 -63 -558 -143 -118 -77 -176 -138 -211 -221 -44 -105 -56
-167 -91 -455 -36 -298 -47 -359 -89 -466 -43 -112 -99 -203 -245 -400 -148
-201 -176 -250 -212 -374 -23 -82 -26 -105 -21 -190 9 -163 57 -275 200 -464
185 -244 253 -355 298 -486 20 -58 48 -239 74 -491 36 -345 110 -492 307 -612
120 -74 179 -89 548 -142 431 -63 526 -100 870 -347 172 -123 256 -174 345
-209 168 -68 351 -64 530 11 49 20 161 88 290 174 432 291 501 319 915 370
357 45 448 72 584 169 183 132 236 266 271 686 21 255 63 425 138 562 23 43
92 145 152 228 172 234 192 266 225 357 60 166 61 290 4 440 -34 91 -54 125
-180 294 -171 230 -231 331 -274 459 -20 63 -51 251 -65 395 -33 363 -79 502
-199 612 -148 134 -280 185 -596 228 -269 37 -395 63 -505 102 -114 41 -187
83 -443 251 -133 88 -275 174 -315 190 -142 60 -285 75 -422 45z m273 -1424
c346 -38 606 -158 839 -387 147 -144 232 -272 304 -452 67 -169 84 -240 98
-410 15 -188 -9 -384 -70 -555 -156 -443 -540 -783 -1004 -889 -304 -70 -628
-29 -913 114 -212 107 -388 260 -519 452 -42 62 -48 76 -48 122 0 100 83 178
190 179 70 1 105 -21 174 -111 179 -235 393 -364 678 -407 127 -19 195 -18
323 4 206 36 371 121 516 265 223 221 319 467 300 771 -13 230 -66 380 -192
547 -170 228 -409 357 -711 386 -220 22 -451 -34 -628 -150 -98 -64 -218 -177
-291 -275 -59 -78 -88 -99 -152 -109 -88 -14 -158 23 -193 101 -25 54 -24 97
5 153 119 231 445 492 731 585 217 70 366 88 563 66z m-1142 -1116 c67 -23
138 -97 159 -165 53 -179 -55 -343 -233 -356 -83 -5 -139 9 -194 51 -64 49
-99 113 -105 190 -17 208 171 349 373 280z"/>
</g>
</svg>
