<svg viewBox="0 0 40 40" xmlns="http://www.w3.org/2000/svg">
  <defs>
    <linearGradient id="logoGrad" x1="0" y1="0" x2="1" y2="1">
      <stop offset="0%" stopColor="#fb7185" />
      <stop offset="55%" stopColor="#e11d48" />
      <stop offset="100%" stopColor="#881337" />
    </linearGradient>
    <linearGradient id="logoGloss" x1="0" y1="0" x2="0" y2="1">
      <stop offset="0%" stopColor="#ffffff" stopOpacity="0.55" />
      <stop offset="60%" stopColor="#ffffff" stopOpacity="0" />
    </linearGradient>
  </defs>
  <path
    d="M20 2.4c2.7 0 4.5 2.4 7.4 3.5 2.9 1.1 6.4.3 8 2.4 1.6 2.1.3 5.4 1.4 8.3 1.1 2.9 4.3 4.6 4.3 7.4 0 2.7-3.2 4.5-4.3 7.4-1.1 2.9.2 6.2-1.4 8.3-1.6 2.1-5.1 1.3-8 2.4-2.9 1.1-4.7 3.5-7.4 3.5s-4.5-2.4-7.4-3.5c-2.9-1.1-6.4-.3-8-2.4-1.6-2.1-.3-5.4-1.4-8.3C2.1 28.5-1 26.7-1 24c0-2.7 3.2-4.5 4.3-7.4 1.1-2.9-.2-6.2 1.4-8.3 1.6-2.1 5.1-1.3 8-2.4C15.5 4.8 17.3 2.4 20 2.4Z"
    fill="#e11d48"
    transform="translate(0 -2)"
  />
  <path
    d="M14.5 16.8c1.5-2.6 4.4-4.3 7.6-4.3 4.9 0 8.9 3.9 8.9 8.7 0 4.9-4 8.7-8.9 8.7-3.2 0-6.1-1.6-7.6-4.3"
    stroke="#fff"
    strokeWidth="2.6"
    strokeLinecap="round"
    fill="none"
  />
  <circle cx="14.4" cy="21.2" r="2.2" fill="#fff" />
  <path
    d="M2 6c4 1 8 5 9 10"
    stroke="#ffffff"
    strokeOpacity="0.4"
    strokeWidth="2"
    strokeLinecap="round"
    fill="none"
  />
</svg>
